<?xml version="1.0" encoding="UTF-8"?>
<!-- Created with Inkscape (http://www.inkscape.org/) -->
<svg width="1952" height="1952" version="1.1" viewBox="0 0 1952 1952" xmlns="http://www.w3.org/2000/svg">
 <g fill-opacity=".46875">
  <path d="m980.79 99.148a172.95 172.95 0 0 0-172.95 172.95 172.95 172.95 0 0 0 114.73 162.85l0.79687 824.62-395.16-305.93v-224.65a172.95 172.95 0 0 0 117.89-163.95 172.95 172.95 0 0 0-172.95-172.95 172.95 172.95 0 0 0-172.95 172.95 172.95 172.95 0 0 0 120.18 164.7l-4.5137 0.03125-1.5938 274.86 508.29 392.77-1.5938 192h-149.78l209.53 258.13 207.94-262.11-149.78 0.7969-0.7969-188.02 506.7-390.38-0.795-281.09a172.95 172.95 0 0 0 117.88-163.95 172.95 172.95 0 0 0-172.95-172.95 172.95 172.95 0 0 0-172.95 172.95 172.95 172.95 0 0 0 117.45 163.8h-3.3613v226.26l-391.18 303.54-3.1817-820.29a172.95 172.95 0 0 0 118.03-164 172.95 172.95 0 0 0-172.95-172.95zm-0.56445 93.516a79.995 79.995 0 0 1 79.996 79.996 79.995 79.995 0 0 1-79.996 79.996 79.995 79.995 0 0 1-79.994-79.996 79.995 79.995 0 0 1 79.994-79.996zm508.14 290.69a79.995 79.995 0 0 1 79.996 79.996 79.995 79.995 0 0 1-79.996 79.996 79.995 79.995 0 0 1-79.994-79.996 79.995 79.995 0 0 1 79.994-79.996zm-1015.8 2.2539a79.995 79.995 0 0 1 79.996 79.996 79.995 79.995 0 0 1-79.996 79.996 79.995 79.995 0 0 1-79.994-79.996 79.995 79.995 0 0 1 79.994-79.996z" stroke-width="1.4346"/>
  <path transform="translate(132.95 74.362)" d="m1363.3 108.16-101.56 39.188-35.892 102.78-39.188-101.56-102.78-35.892 101.56-39.188 35.892-102.78 39.188 101.56z"/>
  <path transform="matrix(1.0887 0 0 1.0887 381.57 203.15)" d="m1363.3 108.16-101.56 39.188-35.892 102.78-39.188-101.56-102.78-35.892 101.56-39.188 35.892-102.78 39.188 101.56z"/>
 </g>
</svg>
